<mxfile host="65bd71144e">
    <diagram name="Page-1" id="MParIuoNIg__FLWPauNw">
        <mxGraphModel dx="1577" dy="1737" grid="1" gridSize="10" guides="1" tooltips="1" connect="1" arrows="1" fold="1" page="1" pageScale="1" pageWidth="850" pageHeight="1100" math="0" shadow="0">
            <root>
                <mxCell id="0"/>
                <mxCell id="1" parent="0"/>
                <mxCell id="y-And4JA3FhRlG04yR8b-1" value="" style="shape=flexArrow;endArrow=classic;html=1;rounded=0;" parent="1" edge="1">
                    <mxGeometry width="50" height="50" relative="1" as="geometry">
                        <mxPoint x="80" y="40" as="sourcePoint"/>
                        <mxPoint x="80" y="761.1428571428571" as="targetPoint"/>
                    </mxGeometry>
                </mxCell>
                <mxCell id="y-And4JA3FhRlG04yR8b-2" value="Flow of time" style="text;html=1;align=center;verticalAlign=middle;resizable=0;points=[];autosize=1;strokeColor=none;fillColor=none;" parent="1" vertex="1">
                    <mxGeometry x="40" y="10" width="90" height="30" as="geometry"/>
                </mxCell>
                <mxCell id="y-And4JA3FhRlG04yR8b-34" style="edgeStyle=orthogonalEdgeStyle;rounded=0;orthogonalLoop=1;jettySize=auto;html=1;entryX=0.5;entryY=0;entryDx=0;entryDy=0;" parent="1" source="y-And4JA3FhRlG04yR8b-7" target="y-And4JA3FhRlG04yR8b-26" edge="1">
                    <mxGeometry relative="1" as="geometry">
                        <Array as="points">
                            <mxPoint x="225" y="400"/>
                        </Array>
                    </mxGeometry>
                </mxCell>
                <mxCell id="y-And4JA3FhRlG04yR8b-51" style="edgeStyle=orthogonalEdgeStyle;rounded=0;orthogonalLoop=1;jettySize=auto;html=1;entryX=0.5;entryY=1;entryDx=0;entryDy=0;" parent="1" source="y-And4JA3FhRlG04yR8b-7" target="y-And4JA3FhRlG04yR8b-5" edge="1">
                    <mxGeometry relative="1" as="geometry">
                        <mxPoint x="1520" y="620" as="targetPoint"/>
                        <Array as="points">
                            <mxPoint x="1658" y="730"/>
                        </Array>
                    </mxGeometry>
                </mxCell>
                <mxCell id="y-And4JA3FhRlG04yR8b-7" value="left vs right views" style="swimlane;whiteSpace=wrap;html=1;" parent="1" vertex="1">
                    <mxGeometry x="350" y="210" width="250" height="550" as="geometry"/>
                </mxCell>
                <mxCell id="y-And4JA3FhRlG04yR8b-12" value="mat walsh" style="text;html=1;align=center;verticalAlign=middle;resizable=0;points=[];autosize=1;strokeColor=none;fillColor=none;" parent="y-And4JA3FhRlG04yR8b-7" vertex="1">
                    <mxGeometry x="140" y="100" width="80" height="30" as="geometry"/>
                </mxCell>
                <mxCell id="y-And4JA3FhRlG04yR8b-13" value="trump" style="text;html=1;align=center;verticalAlign=middle;resizable=0;points=[];autosize=1;strokeColor=none;fillColor=none;" parent="y-And4JA3FhRlG04yR8b-7" vertex="1">
                    <mxGeometry x="150" y="170" width="60" height="30" as="geometry"/>
                </mxCell>
                <mxCell id="y-And4JA3FhRlG04yR8b-14" value="liberal&lt;br&gt;figure" style="text;html=1;align=center;verticalAlign=middle;resizable=0;points=[];autosize=1;strokeColor=none;fillColor=none;" parent="y-And4JA3FhRlG04yR8b-7" vertex="1">
                    <mxGeometry x="25" y="90" width="60" height="40" as="geometry"/>
                </mxCell>
                <mxCell id="y-And4JA3FhRlG04yR8b-15" value="biden" style="text;html=1;align=center;verticalAlign=middle;resizable=0;points=[];autosize=1;strokeColor=none;fillColor=none;" parent="y-And4JA3FhRlG04yR8b-7" vertex="1">
                    <mxGeometry x="30" y="170" width="50" height="30" as="geometry"/>
                </mxCell>
                <mxCell id="y-And4JA3FhRlG04yR8b-10" value="media and public perception (mostly left)" style="swimlane;whiteSpace=wrap;html=1;startSize=60;" parent="1" vertex="1">
                    <mxGeometry x="130" y="40" width="190" height="260" as="geometry"/>
                </mxCell>
                <mxCell id="y-And4JA3FhRlG04yR8b-17" value="similar trends" style="text;html=1;align=center;verticalAlign=middle;resizable=0;points=[];autosize=1;strokeColor=none;fillColor=none;" parent="y-And4JA3FhRlG04yR8b-10" vertex="1">
                    <mxGeometry x="20" y="205" width="100" height="30" as="geometry"/>
                </mxCell>
                <mxCell id="y-And4JA3FhRlG04yR8b-11" value="Science and technology" style="swimlane;whiteSpace=wrap;html=1;" parent="1" vertex="1">
                    <mxGeometry x="1310" y="40" width="460" height="300" as="geometry">
                        <mxRectangle x="870" y="40" width="180" height="30" as="alternateBounds"/>
                    </mxGeometry>
                </mxCell>
                <mxCell id="y-And4JA3FhRlG04yR8b-5" value="wikipedia" style="swimlane;whiteSpace=wrap;html=1;" parent="y-And4JA3FhRlG04yR8b-11" vertex="1">
                    <mxGeometry x="235" y="160" width="225" height="120" as="geometry"/>
                </mxCell>
                <mxCell id="y-And4JA3FhRlG04yR8b-6" value="Polypropylene&lt;br&gt;vs&lt;br&gt;PFAs" style="text;html=1;align=center;verticalAlign=middle;resizable=0;points=[];autosize=1;strokeColor=none;fillColor=none;" parent="y-And4JA3FhRlG04yR8b-5" vertex="1">
                    <mxGeometry x="50" y="40" width="100" height="60" as="geometry"/>
                </mxCell>
                <mxCell id="y-And4JA3FhRlG04yR8b-19" value="history of plastic" style="text;html=1;align=center;verticalAlign=middle;resizable=0;points=[];autosize=1;strokeColor=none;fillColor=none;" parent="y-And4JA3FhRlG04yR8b-11" vertex="1">
                    <mxGeometry x="45" y="60" width="110" height="30" as="geometry"/>
                </mxCell>
                <mxCell id="y-And4JA3FhRlG04yR8b-20" value="our idea of biodegradable" style="text;html=1;align=center;verticalAlign=middle;resizable=0;points=[];autosize=1;strokeColor=none;fillColor=none;" parent="y-And4JA3FhRlG04yR8b-11" vertex="1">
                    <mxGeometry x="45" y="90" width="160" height="30" as="geometry"/>
                </mxCell>
                <mxCell id="y-And4JA3FhRlG04yR8b-21" value="history of non-biodegradable things" style="text;html=1;align=center;verticalAlign=middle;resizable=0;points=[];autosize=1;strokeColor=none;fillColor=none;" parent="y-And4JA3FhRlG04yR8b-11" vertex="1">
                    <mxGeometry x="40" y="120" width="220" height="30" as="geometry"/>
                </mxCell>
                <mxCell id="y-And4JA3FhRlG04yR8b-33" style="edgeStyle=orthogonalEdgeStyle;rounded=0;orthogonalLoop=1;jettySize=auto;html=1;entryX=0.5;entryY=0;entryDx=0;entryDy=0;" parent="1" source="y-And4JA3FhRlG04yR8b-16" target="y-And4JA3FhRlG04yR8b-7" edge="1">
                    <mxGeometry relative="1" as="geometry">
                        <Array as="points">
                            <mxPoint x="475" y="160"/>
                        </Array>
                    </mxGeometry>
                </mxCell>
                <mxCell id="y-And4JA3FhRlG04yR8b-16" value="government policies&lt;br&gt;world wide" style="swimlane;whiteSpace=wrap;html=1;startSize=40;" parent="1" vertex="1">
                    <mxGeometry x="620" y="140" width="220" height="460" as="geometry"/>
                </mxCell>
                <mxCell id="y-And4JA3FhRlG04yR8b-18" value="Passive perception" style="swimlane;whiteSpace=wrap;html=1;" parent="1" vertex="1">
                    <mxGeometry x="900" y="40" width="390" height="380" as="geometry"/>
                </mxCell>
                <mxCell id="y-And4JA3FhRlG04yR8b-22" value="Reddit&lt;br&gt;Twitter/X&lt;br&gt;YouTube&lt;br&gt;Blog posts" style="text;html=1;align=center;verticalAlign=middle;resizable=0;points=[];autosize=1;strokeColor=none;fillColor=none;" parent="y-And4JA3FhRlG04yR8b-18" vertex="1">
                    <mxGeometry x="40" y="60" width="80" height="70" as="geometry"/>
                </mxCell>
                <mxCell id="2" value="news outlets" style="text;html=1;align=center;verticalAlign=middle;resizable=0;points=[];autosize=1;strokeColor=none;fillColor=none;" parent="y-And4JA3FhRlG04yR8b-18" vertex="1">
                    <mxGeometry x="230" y="60" width="90" height="30" as="geometry"/>
                </mxCell>
                <mxCell id="y-And4JA3FhRlG04yR8b-23" value="Start banning" style="text;html=1;align=center;verticalAlign=middle;resizable=0;points=[];autosize=1;strokeColor=none;fillColor=none;" parent="1" vertex="1">
                    <mxGeometry x="30" y="245" width="100" height="30" as="geometry"/>
                </mxCell>
                <mxCell id="y-And4JA3FhRlG04yR8b-25" value="Rise of opposition" style="text;html=1;align=center;verticalAlign=middle;resizable=0;points=[];autosize=1;strokeColor=none;fillColor=none;" parent="1" vertex="1">
                    <mxGeometry x="20" y="480" width="120" height="30" as="geometry"/>
                </mxCell>
                <mxCell id="y-And4JA3FhRlG04yR8b-26" value="media and public perception (mostly left)" style="swimlane;whiteSpace=wrap;html=1;startSize=60;" parent="1" vertex="1">
                    <mxGeometry x="130" y="510" width="190" height="250" as="geometry">
                        <mxRectangle x="130" y="540" width="270" height="60" as="alternateBounds"/>
                    </mxGeometry>
                </mxCell>
                <mxCell id="y-And4JA3FhRlG04yR8b-27" value="similar trends" style="text;html=1;align=center;verticalAlign=middle;resizable=0;points=[];autosize=1;strokeColor=none;fillColor=none;" parent="y-And4JA3FhRlG04yR8b-26" vertex="1">
                    <mxGeometry x="10" y="90" width="100" height="30" as="geometry"/>
                </mxCell>
                <mxCell id="y-And4JA3FhRlG04yR8b-28" value="What were they concentrated on this time?" style="text;html=1;align=center;verticalAlign=middle;resizable=0;points=[];autosize=1;strokeColor=none;fillColor=none;" parent="1" vertex="1">
                    <mxGeometry x="350" y="100" width="250" height="30" as="geometry"/>
                </mxCell>
                <mxCell id="y-And4JA3FhRlG04yR8b-30" value="volatility" style="text;html=1;align=center;verticalAlign=middle;resizable=0;points=[];autosize=1;strokeColor=none;fillColor=none;" parent="1" vertex="1">
                    <mxGeometry x="530" y="20" width="70" height="30" as="geometry"/>
                </mxCell>
                <mxCell id="y-And4JA3FhRlG04yR8b-31" value="" style="endArrow=classic;html=1;rounded=0;entryX=0.976;entryY=-0.017;entryDx=0;entryDy=0;entryPerimeter=0;" parent="1" target="y-And4JA3FhRlG04yR8b-2" edge="1">
                    <mxGeometry width="50" height="50" relative="1" as="geometry">
                        <mxPoint x="860" y="9" as="sourcePoint"/>
                        <mxPoint x="210" y="-100" as="targetPoint"/>
                    </mxGeometry>
                </mxCell>
                <mxCell id="y-And4JA3FhRlG04yR8b-32" value="" style="endArrow=classic;html=1;rounded=0;exitX=0.993;exitY=0.097;exitDx=0;exitDy=0;exitPerimeter=0;entryX=0.5;entryY=0;entryDx=0;entryDy=0;" parent="1" source="y-And4JA3FhRlG04yR8b-10" target="y-And4JA3FhRlG04yR8b-16" edge="1">
                    <mxGeometry width="50" height="50" relative="1" as="geometry">
                        <mxPoint x="740" y="450" as="sourcePoint"/>
                        <mxPoint x="790" y="400" as="targetPoint"/>
                        <Array as="points">
                            <mxPoint x="730" y="65"/>
                        </Array>
                    </mxGeometry>
                </mxCell>
                <mxCell id="y-And4JA3FhRlG04yR8b-35" value="" style="endArrow=classic;html=1;rounded=0;entryX=0.976;entryY=-0.017;entryDx=0;entryDy=0;entryPerimeter=0;startArrow=classic;startFill=1;" parent="1" edge="1">
                    <mxGeometry width="50" height="50" relative="1" as="geometry">
                        <mxPoint x="1770" y="10" as="sourcePoint"/>
                        <mxPoint x="900" y="10" as="targetPoint"/>
                    </mxGeometry>
                </mxCell>
                <mxCell id="y-And4JA3FhRlG04yR8b-36" value="Feeling &amp;lt;-&amp;gt; Thinking" style="text;html=1;align=center;verticalAlign=middle;resizable=0;points=[];autosize=1;strokeColor=none;fillColor=none;" parent="1" vertex="1">
                    <mxGeometry x="1270" y="10" width="140" height="30" as="geometry"/>
                </mxCell>
                <mxCell id="y-And4JA3FhRlG04yR8b-37" value="" style="endArrow=classic;html=1;rounded=0;startArrow=classic;startFill=1;" parent="1" edge="1">
                    <mxGeometry width="50" height="50" relative="1" as="geometry">
                        <mxPoint x="1790" y="10" as="sourcePoint"/>
                        <mxPoint x="2510" y="10" as="targetPoint"/>
                    </mxGeometry>
                </mxCell>
                <mxCell id="y-And4JA3FhRlG04yR8b-38" value="Natural disaster" style="text;html=1;align=center;verticalAlign=middle;resizable=0;points=[];autosize=1;strokeColor=none;fillColor=none;" parent="1" vertex="1">
                    <mxGeometry x="2100" y="10" width="110" height="30" as="geometry"/>
                </mxCell>
                <mxCell id="y-And4JA3FhRlG04yR8b-39" value="Short term" style="swimlane;whiteSpace=wrap;html=1;" parent="1" vertex="1">
                    <mxGeometry x="1800" y="40" width="340" height="720" as="geometry">
                        <mxRectangle x="870" y="40" width="180" height="30" as="alternateBounds"/>
                    </mxGeometry>
                </mxCell>
                <mxCell id="y-And4JA3FhRlG04yR8b-42" value="Actual recorded damages caused by plastics&lt;br&gt;Actual percentage of plastics&lt;br&gt;The damage mitigated by plastics" style="text;html=1;align=center;verticalAlign=middle;resizable=0;points=[];autosize=1;strokeColor=none;fillColor=none;" parent="y-And4JA3FhRlG04yR8b-39" vertex="1">
                    <mxGeometry x="35" y="60" width="270" height="60" as="geometry"/>
                </mxCell>
                <mxCell id="y-And4JA3FhRlG04yR8b-60" value="Turtles" style="text;html=1;align=center;verticalAlign=middle;resizable=0;points=[];autosize=1;strokeColor=none;fillColor=none;" parent="y-And4JA3FhRlG04yR8b-39" vertex="1">
                    <mxGeometry x="80" y="410" width="60" height="30" as="geometry"/>
                </mxCell>
                <mxCell id="y-And4JA3FhRlG04yR8b-45" value="Long term" style="swimlane;whiteSpace=wrap;html=1;" parent="1" vertex="1">
                    <mxGeometry x="2170" y="40" width="340" height="720" as="geometry">
                        <mxRectangle x="870" y="40" width="180" height="30" as="alternateBounds"/>
                    </mxGeometry>
                </mxCell>
                <mxCell id="y-And4JA3FhRlG04yR8b-46" value="Actual recorded damages caused by plastics&lt;br&gt;Actual percentage of plastics&lt;br&gt;The damage mitigated by plastics" style="text;html=1;align=center;verticalAlign=middle;resizable=0;points=[];autosize=1;strokeColor=none;fillColor=none;" parent="y-And4JA3FhRlG04yR8b-45" vertex="1">
                    <mxGeometry y="60" width="270" height="60" as="geometry"/>
                </mxCell>
                <mxCell id="y-And4JA3FhRlG04yR8b-59" value="Bio magnification" style="text;html=1;align=center;verticalAlign=middle;resizable=0;points=[];autosize=1;strokeColor=none;fillColor=none;" parent="y-And4JA3FhRlG04yR8b-45" vertex="1">
                    <mxGeometry x="40" y="360" width="120" height="30" as="geometry"/>
                </mxCell>
                <mxCell id="y-And4JA3FhRlG04yR8b-48" value="Damage to humanity" style="text;html=1;align=center;verticalAlign=middle;resizable=0;points=[];autosize=1;strokeColor=none;fillColor=none;" parent="1" vertex="1">
                    <mxGeometry x="2740" y="10" width="140" height="30" as="geometry"/>
                </mxCell>
                <mxCell id="y-And4JA3FhRlG04yR8b-49" value="Long term" style="swimlane;whiteSpace=wrap;html=1;" parent="1" vertex="1">
                    <mxGeometry x="2540" y="40" width="550" height="720" as="geometry">
                        <mxRectangle x="870" y="40" width="180" height="30" as="alternateBounds"/>
                    </mxGeometry>
                </mxCell>
                <mxCell id="y-And4JA3FhRlG04yR8b-50" value="Actual recorded damages caused by plastics&lt;br&gt;Actual percentage of plastics&lt;br&gt;The damage mitigated by plastics" style="text;html=1;align=center;verticalAlign=middle;resizable=0;points=[];autosize=1;strokeColor=none;fillColor=none;" parent="y-And4JA3FhRlG04yR8b-49" vertex="1">
                    <mxGeometry y="60" width="270" height="60" as="geometry"/>
                </mxCell>
                <mxCell id="y-And4JA3FhRlG04yR8b-52" value="Reddit" style="text;html=1;align=center;verticalAlign=middle;resizable=0;points=[];autosize=1;strokeColor=none;fillColor=none;" parent="1" vertex="1">
                    <mxGeometry x="1000" y="520" width="60" height="30" as="geometry"/>
                </mxCell>
                <mxCell id="y-And4JA3FhRlG04yR8b-53" value="Twitter" style="text;html=1;align=center;verticalAlign=middle;resizable=0;points=[];autosize=1;strokeColor=none;fillColor=none;" parent="1" vertex="1">
                    <mxGeometry x="940" y="480" width="60" height="30" as="geometry"/>
                </mxCell>
                <mxCell id="y-And4JA3FhRlG04yR8b-54" value="YouTube" style="text;html=1;align=center;verticalAlign=middle;resizable=0;points=[];autosize=1;strokeColor=none;fillColor=none;" parent="1" vertex="1">
                    <mxGeometry x="940" y="560" width="70" height="30" as="geometry"/>
                </mxCell>
                <mxCell id="y-And4JA3FhRlG04yR8b-55" value="4chan" style="text;html=1;align=center;verticalAlign=middle;resizable=0;points=[];autosize=1;strokeColor=none;fillColor=none;" parent="1" vertex="1">
                    <mxGeometry x="940" y="520" width="60" height="30" as="geometry"/>
                </mxCell>
                <mxCell id="y-And4JA3FhRlG04yR8b-56" value="Blog Posts" style="text;html=1;align=center;verticalAlign=middle;resizable=0;points=[];autosize=1;strokeColor=none;fillColor=none;" parent="1" vertex="1">
                    <mxGeometry x="1000" y="560" width="80" height="30" as="geometry"/>
                </mxCell>
                <mxCell id="y-And4JA3FhRlG04yR8b-57" value="" style="endArrow=classic;html=1;rounded=0;" parent="1" edge="1">
                    <mxGeometry width="50" height="50" relative="1" as="geometry">
                        <mxPoint x="920" y="480" as="sourcePoint"/>
                        <mxPoint x="920" y="590" as="targetPoint"/>
                    </mxGeometry>
                </mxCell>
                <mxCell id="y-And4JA3FhRlG04yR8b-58" value="influence" style="text;html=1;align=center;verticalAlign=middle;resizable=0;points=[];autosize=1;strokeColor=none;fillColor=none;" parent="1" vertex="1">
                    <mxGeometry x="890" y="450" width="70" height="30" as="geometry"/>
                </mxCell>
            </root>
        </mxGraphModel>
    </diagram>
</mxfile>
